<svg xmlns="http://www.w3.org/2000/svg" fill="none" width="15.681" height="16.072"><path d="M12.001 0c1.053 0 1.989.668 2.33 1.664l1.264 3.674a1.607 1.607 0 0 1-1.08 2.067v5.345a3.321 3.321 0 0 1-3.322 3.321H4.497a3.321 3.321 0 0 1-3.322-3.321V7.498a4.65 4.65 0 0 1-.083-.035l-.187-.086a1.607 1.607 0 0 1-.806-2L1.48 1.615A2.464 2.464 0 0 1 3.794 0H12ZM2.675 7.81v4.94c0 1.006.816 1.821 1.822 1.821h6.696a1.821 1.821 0 0 0 1.822-1.821V7.603c-.765-.038-1.544-.284-2.332-.729l-.162-.095-.096.07c-1.687 1.199-3.415 1.197-5.02-.013l-.01-.007-.031.025c-.878.64-1.78.963-2.689.956Zm9.326-6.31H3.793a.964.964 0 0 0-.905.632L1.507 5.894a.107.107 0 0 0 .054.134c1.097.533 2.167.316 3.344-.731a.75.75 0 0 1 1.01.011c1.345 1.254 2.603 1.254 4.068-.017a.75.75 0 0 1 .92-.05c1.194.832 2.244 1.051 3.208.718l-.014.004.012-.004a.108.108 0 0 0 .072-.102l-.006-.033-1.262-3.673A.964.964 0 0 0 12 1.5Z" fill-rule="evenodd" fill="#1F1F1F"/></svg>